<svg xmlns="http://www.w3.org/2000/svg" width="1200" height="520" viewBox="0 0 1200 520" role="img" aria-label="Segment-wise multi-stem generation with segment-level style controls">
  <defs>
    <style>
      .bg { fill: #ffffff; }

      /* Axes */
      .axis { stroke: #111827; stroke-width: 1.8; stroke-linecap: round; opacity: 0.92; }

      /* Lanes */
      .lane { stroke: #e5e7eb; stroke-width: 1; opacity: 0.35; }

      /* Typography */
      .title {
        fill: #111827;
        font-family: Inter, ui-sans-serif, system-ui, -apple-system, Segoe UI, Roboto, Helvetica, Arial;
        font-size: 24px;
        font-weight: 900;
      }
      .subtitle {
        fill: #6b7280;
        font-family: Inter, ui-sans-serif, system-ui, -apple-system, Segoe UI, Roboto, Helvetica, Arial;
        font-size: 16px;
        font-weight: 500;
      }
      .axisLabel {
        fill: #111827;
        font-family: Inter, ui-sans-serif, system-ui, -apple-system, Segoe UI, Roboto, Helvetica, Arial;
        font-size: 18px;
        font-weight: 900;
      }
      .stemLabel {
        fill: #111827;
        font-family: Inter, ui-sans-serif, system-ui, -apple-system, Segoe UI, Roboto, Helvetica, Arial;
        font-size: 17px;
        font-weight: 900;
      }
      .moreLabel {
        fill: #6b7280;
        font-family: Inter, ui-sans-serif, system-ui, -apple-system, Segoe UI, Roboto, Helvetica, Arial;
        font-size: 15px;
        font-weight: 800;
      }
      .segmentLabel {
        fill: #111827;
        font-family: Inter, ui-sans-serif, system-ui, -apple-system, Segoe UI, Roboto, Helvetica, Arial;
        font-size: 17px;
        font-weight: 900;
      }

      /* Shapes */
      .segment { fill: #ffffff; stroke: #d1d5db; stroke-width: 2; }
      .token { stroke: rgba(17,24,39,0.10); stroke-width: 1; rx: 7; }

      /* Chips */
      .chip {
        fill: #f3f4f6;
        stroke: #e5e7eb;
        stroke-width: 1;
        rx: 10;
      }
      .chipText {
        fill: #111827;
        font-family: Inter, ui-sans-serif, system-ui, -apple-system, Segoe UI, Roboto, Helvetica, Arial;
        font-size: 14px;
        font-weight: 750;
      }
    </style>

    <marker id="arrow" viewBox="0 0 10 10" refX="8.2" refY="5" markerWidth="7" markerHeight="7" orient="auto-start-reverse">
      <path d="M 0 0 L 10 5 L 0 10 z" fill="#111827"/>
    </marker>
  </defs>

  <rect class="bg" x="0" y="0" width="1200" height="520"/>
  <g transform="translate(0,-40)">
  <!-- Axes -->
  <line class="axis" x1="160" y1="420" x2="1145" y2="420" marker-end="url(#arrow)"/>
  <line class="axis" x1="160" y1="420" x2="160" y2="92" marker-end="url(#arrow)"/>

  <!-- Axis labels -->
  <!-- moved up closer to x-axis line -->
  <text class="axisLabel" x="1165" y="448" text-anchor="end">time</text>
  <text class="axisLabel" x="105" y="114" text-anchor="end">Stems</text>

  <!-- + more -->
  <text class="moreLabel" x="130" y="132" text-anchor="end">+ more</text>

  <!-- 6 stem lanes -->
  <line class="lane" x1="160" y1="160" x2="1145" y2="160"/>
  <line class="lane" x1="160" y1="205" x2="1145" y2="205"/>
  <line class="lane" x1="160" y1="250" x2="1145" y2="250"/>
  <line class="lane" x1="160" y1="295" x2="1145" y2="295"/>
  <line class="lane" x1="160" y1="340" x2="1145" y2="340"/>
  <line class="lane" x1="160" y1="385" x2="1145" y2="385"/>

  <text class="stemLabel" x="130" y="164" text-anchor="end">Percussion</text>
  <text class="stemLabel" x="130" y="209" text-anchor="end">Bass</text>
  <text class="stemLabel" x="130" y="254" text-anchor="end">Keys</text>
  <text class="stemLabel" x="130" y="299" text-anchor="end">Lead synth</text>
  <text class="stemLabel" x="130" y="344" text-anchor="end">Atmosphere</text>
  <text class="stemLabel" x="130" y="389" text-anchor="end">Vocals</text>

  <!-- Segments -->
  <rect class="segment" x="190" y="120" width="160" height="320" rx="20"/>
  <rect class="segment" x="370" y="120" width="180" height="320" rx="20"/>
  <rect class="segment" x="570" y="120" width="200" height="320" rx="20"/>
  <rect class="segment" x="790" y="120" width="170" height="320" rx="20"/>
  <rect class="segment" x="970" y="120" width="140" height="320" rx="20"/>

  <!-- Segment labels -->
  <!-- moved up so they sit fully inside the segment pill -->
  <text class="segmentLabel" x="270" y="432" text-anchor="middle">INTRO</text>
  <text class="segmentLabel" x="460" y="432" text-anchor="middle">VERSE</text>
  <text class="segmentLabel" x="670" y="432" text-anchor="middle">CHORUS</text>
  <text class="segmentLabel" x="875" y="432" text-anchor="middle">BRIDGE</text>
  <text class="segmentLabel" x="1040" y="432" text-anchor="middle">OUTRO</text>

  <!-- STYLE CHIPS (centered + consistent padding within segments) -->
  <!-- INTRO (segment: x=190 width=160 center=270) -->
  <rect class="chip" x="200" y="452" width="140" height="26"/>
  <text class="chipText" x="270" y="469" text-anchor="middle">atmospheric pads</text>

  <!-- VERSE (segment: x=370 width=180 center=460) -->
  <rect class="chip" x="390" y="452" width="140" height="26"/>
  <text class="chipText" x="460" y="469" text-anchor="middle">tighter rhythm</text>
  <rect class="chip" x="395" y="480" width="130" height="26"/>
  <text class="chipText" x="460" y="497" text-anchor="middle">minimal bass</text>

  <!-- CHORUS (segment: x=570 width=200 center=670) -->
  <rect class="chip" x="600" y="452" width="140" height="26"/>
  <text class="chipText" x="670" y="469" text-anchor="middle">layered synths</text>
  <rect class="chip" x="597" y="480" width="146" height="26"/>
  <text class="chipText" x="670" y="497" text-anchor="middle">driving drums</text>
  <rect class="chip" x="620" y="508" width="100" height="26"/>
  <text class="chipText" x="670" y="525" text-anchor="middle">drop feel</text>

  <!-- BRIDGE (segment: x=790 width=170 center=875) -->
  <rect class="chip" x="810" y="452" width="130" height="26"/>
  <text class="chipText" x="875" y="469" text-anchor="middle">rising tension</text>

  <!-- OUTRO (segment: x=970 width=140 center=1040) -->
  <rect class="chip" x="980" y="452" width="120" height="26"/>
  <text class="chipText" x="1040" y="469" text-anchor="middle">reduced energy</text>
  <rect class="chip" x="975" y="480" width="130" height="26"/>
  <text class="chipText" x="1040" y="497" text-anchor="middle">long reverb tails</text>

  <!-- TOKENS -->
  <!-- Colors per stem:
       Perc #60a5fa
       Bass #34d399
       Keys #a78bfa
       Lead #f59e0b
       Atmosphere CHANGED to #94a3b8 (slate) to avoid green similarity
       Vocals #fb7185
  -->

  <!-- INTRO -->
  <rect class="token" x="206" y="153" width="22" height="14" fill="#60a5fa" opacity="0.04"/>
  <rect class="token" x="233" y="153" width="22" height="14" fill="#60a5fa" opacity="0.14"/>
  <rect class="token" x="260" y="153" width="22" height="14" fill="#60a5fa" opacity="0.09"/>
  <rect class="token" x="287" y="153" width="22" height="14" fill="#60a5fa" opacity="0.32"/>

  <rect class="token" x="206" y="198" width="22" height="14" fill="#34d399" opacity="0.00"/>
  <rect class="token" x="233" y="198" width="22" height="14" fill="#34d399" opacity="0.06"/>
  <rect class="token" x="260" y="198" width="22" height="14" fill="#34d399" opacity="0.12"/>
  <rect class="token" x="287" y="198" width="22" height="14" fill="#34d399" opacity="0.08"/>

  <rect class="token" x="206" y="243" width="22" height="14" fill="#a78bfa" opacity="0.06"/>
  <rect class="token" x="233" y="243" width="22" height="14" fill="#a78bfa" opacity="0.18"/>
  <rect class="token" x="260" y="243" width="22" height="14" fill="#a78bfa" opacity="0.10"/>
  <rect class="token" x="287" y="243" width="22" height="14" fill="#a78bfa" opacity="0.26"/>

  <rect class="token" x="206" y="288" width="22" height="14" fill="#f59e0b" opacity="0.00"/>
  <rect class="token" x="233" y="288" width="22" height="14" fill="#f59e0b" opacity="0.08"/>
  <rect class="token" x="260" y="288" width="22" height="14" fill="#f59e0b" opacity="0.04"/>
  <rect class="token" x="287" y="288" width="22" height="14" fill="#f59e0b" opacity="0.14"/>

  <rect class="token" x="206" y="333" width="22" height="14" fill="#94a3b8" opacity="0.10"/>
  <rect class="token" x="233" y="333" width="22" height="14" fill="#94a3b8" opacity="0.22"/>
  <rect class="token" x="260" y="333" width="22" height="14" fill="#94a3b8" opacity="0.16"/>
  <rect class="token" x="287" y="333" width="22" height="14" fill="#94a3b8" opacity="0.30"/>

  <rect class="token" x="206" y="378" width="22" height="14" fill="#fb7185" opacity="0.00"/>
  <rect class="token" x="233" y="378" width="22" height="14" fill="#fb7185" opacity="0.00"/>
  <rect class="token" x="260" y="378" width="22" height="14" fill="#fb7185" opacity="0.00"/>
  <rect class="token" x="287" y="378" width="22" height="14" fill="#fb7185" opacity="0.00"/>

  <!-- VERSE -->
  <rect class="token" x="386" y="153" width="22" height="14" fill="#60a5fa" opacity="0.52"/>
  <rect class="token" x="413" y="153" width="22" height="14" fill="#60a5fa" opacity="0.30"/>
  <rect class="token" x="440" y="153" width="22" height="14" fill="#60a5fa" opacity="0.58"/>
  <rect class="token" x="467" y="153" width="22" height="14" fill="#60a5fa" opacity="0.40"/>
  <rect class="token" x="494" y="153" width="22" height="14" fill="#60a5fa" opacity="0.46"/>

  <rect class="token" x="386" y="198" width="22" height="14" fill="#34d399" opacity="0.44"/>
  <rect class="token" x="413" y="198" width="22" height="14" fill="#34d399" opacity="0.26"/>
  <rect class="token" x="440" y="198" width="22" height="14" fill="#34d399" opacity="0.54"/>
  <rect class="token" x="467" y="198" width="22" height="14" fill="#34d399" opacity="0.32"/>
  <rect class="token" x="494" y="198" width="22" height="14" fill="#34d399" opacity="0.48"/>

  <rect class="token" x="386" y="243" width="22" height="14" fill="#a78bfa" opacity="0.50"/>
  <rect class="token" x="413" y="243" width="22" height="14" fill="#a78bfa" opacity="0.28"/>
  <rect class="token" x="440" y="243" width="22" height="14" fill="#a78bfa" opacity="0.60"/>
  <rect class="token" x="467" y="243" width="22" height="14" fill="#a78bfa" opacity="0.34"/>
  <rect class="token" x="494" y="243" width="22" height="14" fill="#a78bfa" opacity="0.45"/>

  <rect class="token" x="386" y="288" width="22" height="14" fill="#f59e0b" opacity="0.22"/>
  <rect class="token" x="413" y="288" width="22" height="14" fill="#f59e0b" opacity="0.38"/>
  <rect class="token" x="440" y="288" width="22" height="14" fill="#f59e0b" opacity="0.18"/>
  <rect class="token" x="467" y="288" width="22" height="14" fill="#f59e0b" opacity="0.34"/>
  <rect class="token" x="494" y="288" width="22" height="14" fill="#f59e0b" opacity="0.26"/>

  <rect class="token" x="386" y="333" width="22" height="14" fill="#94a3b8" opacity="0.18"/>
  <rect class="token" x="413" y="333" width="22" height="14" fill="#94a3b8" opacity="0.28"/>
  <rect class="token" x="440" y="333" width="22" height="14" fill="#94a3b8" opacity="0.22"/>
  <rect class="token" x="467" y="333" width="22" height="14" fill="#94a3b8" opacity="0.14"/>
  <rect class="token" x="494" y="333" width="22" height="14" fill="#94a3b8" opacity="0.24"/>

  <rect class="token" x="386" y="378" width="22" height="14" fill="#fb7185" opacity="0.00"/>
  <rect class="token" x="413" y="378" width="22" height="14" fill="#fb7185" opacity="0.28"/>
  <rect class="token" x="440" y="378" width="22" height="14" fill="#fb7185" opacity="0.00"/>
  <rect class="token" x="467" y="378" width="22" height="14" fill="#fb7185" opacity="0.34"/>
  <rect class="token" x="494" y="378" width="22" height="14" fill="#fb7185" opacity="0.20"/>

  <!-- CHORUS -->
  <rect class="token" x="586" y="153" width="22" height="14" fill="#60a5fa" opacity="0.84"/>
  <rect class="token" x="613" y="153" width="22" height="14" fill="#60a5fa" opacity="0.62"/>
  <rect class="token" x="640" y="153" width="22" height="14" fill="#60a5fa" opacity="0.90"/>
  <rect class="token" x="667" y="153" width="22" height="14" fill="#60a5fa" opacity="0.70"/>
  <rect class="token" x="694" y="153" width="22" height="14" fill="#60a5fa" opacity="0.78"/>
  <rect class="token" x="721" y="153" width="22" height="14" fill="#60a5fa" opacity="0.58"/>

  <rect class="token" x="586" y="198" width="22" height="14" fill="#34d399" opacity="0.80"/>
  <rect class="token" x="613" y="198" width="22" height="14" fill="#34d399" opacity="0.58"/>
  <rect class="token" x="640" y="198" width="22" height="14" fill="#34d399" opacity="0.86"/>
  <rect class="token" x="667" y="198" width="22" height="14" fill="#34d399" opacity="0.66"/>
  <rect class="token" x="694" y="198" width="22" height="14" fill="#34d399" opacity="0.74"/>
  <rect class="token" x="721" y="198" width="22" height="14" fill="#34d399" opacity="0.55"/>

  <rect class="token" x="586" y="243" width="22" height="14" fill="#a78bfa" opacity="0.72"/>
  <rect class="token" x="613" y="243" width="22" height="14" fill="#a78bfa" opacity="0.86"/>
  <rect class="token" x="640" y="243" width="22" height="14" fill="#a78bfa" opacity="0.64"/>
  <rect class="token" x="667" y="243" width="22" height="14" fill="#a78bfa" opacity="0.78"/>
  <rect class="token" x="694" y="243" width="22" height="14" fill="#a78bfa" opacity="0.66"/>
  <rect class="token" x="721" y="243" width="22" height="14" fill="#a78bfa" opacity="0.74"/>

  <rect class="token" x="586" y="288" width="22" height="14" fill="#f59e0b" opacity="0.68"/>
  <rect class="token" x="613" y="288" width="22" height="14" fill="#f59e0b" opacity="0.82"/>
  <rect class="token" x="640" y="288" width="22" height="14" fill="#f59e0b" opacity="0.52"/>
  <rect class="token" x="667" y="288" width="22" height="14" fill="#f59e0b" opacity="0.76"/>
  <rect class="token" x="694" y="288" width="22" height="14" fill="#f59e0b" opacity="0.60"/>
  <rect class="token" x="721" y="288" width="22" height="14" fill="#f59e0b" opacity="0.70"/>

  <rect class="token" x="586" y="333" width="22" height="14" fill="#94a3b8" opacity="0.30"/>
  <rect class="token" x="613" y="333" width="22" height="14" fill="#94a3b8" opacity="0.22"/>
  <rect class="token" x="640" y="333" width="22" height="14" fill="#94a3b8" opacity="0.40"/>
  <rect class="token" x="667" y="333" width="22" height="14" fill="#94a3b8" opacity="0.26"/>
  <rect class="token" x="694" y="333" width="22" height="14" fill="#94a3b8" opacity="0.34"/>
  <rect class="token" x="721" y="333" width="22" height="14" fill="#94a3b8" opacity="0.20"/>

  <rect class="token" x="586" y="378" width="22" height="14" fill="#fb7185" opacity="0.76"/>
  <rect class="token" x="613" y="378" width="22" height="14" fill="#fb7185" opacity="0.58"/>
  <rect class="token" x="640" y="378" width="22" height="14" fill="#fb7185" opacity="0.86"/>
  <rect class="token" x="667" y="378" width="22" height="14" fill="#fb7185" opacity="0.64"/>
  <rect class="token" x="694" y="378" width="22" height="14" fill="#fb7185" opacity="0.74"/>
  <rect class="token" x="721" y="378" width="22" height="14" fill="#fb7185" opacity="0.54"/>

  <!-- BRIDGE -->
  <rect class="token" x="806" y="153" width="22" height="14" fill="#60a5fa" opacity="0.26"/>
  <rect class="token" x="833" y="153" width="22" height="14" fill="#60a5fa" opacity="0.54"/>
  <rect class="token" x="860" y="153" width="22" height="14" fill="#60a5fa" opacity="0.18"/>
  <rect class="token" x="887" y="153" width="22" height="14" fill="#60a5fa" opacity="0.42"/>
  <rect class="token" x="914" y="153" width="22" height="14" fill="#60a5fa" opacity="0.34"/>

  <rect class="token" x="806" y="198" width="22" height="14" fill="#34d399" opacity="0.12"/>
  <rect class="token" x="833" y="198" width="22" height="14" fill="#34d399" opacity="0.30"/>
  <rect class="token" x="860" y="198" width="22" height="14" fill="#34d399" opacity="0.00"/>
  <rect class="token" x="887" y="198" width="22" height="14" fill="#34d399" opacity="0.22"/>
  <rect class="token" x="914" y="198" width="22" height="14" fill="#34d399" opacity="0.18"/>

  <rect class="token" x="806" y="243" width="22" height="14" fill="#a78bfa" opacity="0.74"/>
  <rect class="token" x="833" y="243" width="22" height="14" fill="#a78bfa" opacity="0.46"/>
  <rect class="token" x="860" y="243" width="22" height="14" fill="#a78bfa" opacity="0.66"/>
  <rect class="token" x="887" y="243" width="22" height="14" fill="#a78bfa" opacity="0.38"/>
  <rect class="token" x="914" y="243" width="22" height="14" fill="#a78bfa" opacity="0.58"/>

  <rect class="token" x="806" y="288" width="22" height="14" fill="#f59e0b" opacity="0.34"/>
  <rect class="token" x="833" y="288" width="22" height="14" fill="#f59e0b" opacity="0.16"/>
  <rect class="token" x="860" y="288" width="22" height="14" fill="#f59e0b" opacity="0.42"/>
  <rect class="token" x="887" y="288" width="22" height="14" fill="#f59e0b" opacity="0.20"/>
  <rect class="token" x="914" y="288" width="22" height="14" fill="#f59e0b" opacity="0.30"/>

  <rect class="token" x="806" y="333" width="22" height="14" fill="#94a3b8" opacity="0.30"/>
  <rect class="token" x="833" y="333" width="22" height="14" fill="#94a3b8" opacity="0.12"/>
  <rect class="token" x="860" y="333" width="22" height="14" fill="#94a3b8" opacity="0.38"/>
  <rect class="token" x="887" y="333" width="22" height="14" fill="#94a3b8" opacity="0.16"/>
  <rect class="token" x="914" y="333" width="22" height="14" fill="#94a3b8" opacity="0.26"/>

  <rect class="token" x="806" y="378" width="22" height="14" fill="#fb7185" opacity="0.00"/>
  <rect class="token" x="833" y="378" width="22" height="14" fill="#fb7185" opacity="0.00"/>
  <rect class="token" x="860" y="378" width="22" height="14" fill="#fb7185" opacity="0.00"/>
  <rect class="token" x="887" y="378" width="22" height="14" fill="#fb7185" opacity="0.00"/>
  <rect class="token" x="914" y="378" width="22" height="14" fill="#fb7185" opacity="0.00"/>

  <!-- OUTRO -->
  <rect class="token" x="986" y="153" width="22" height="14" fill="#60a5fa" opacity="0.46"/>
  <rect class="token" x="1013" y="153" width="22" height="14" fill="#60a5fa" opacity="0.22"/>
  <rect class="token" x="1040" y="153" width="22" height="14" fill="#60a5fa" opacity="0.14"/>
  <rect class="token" x="1067" y="153" width="22" height="14" fill="#60a5fa" opacity="0.04"/>

  <rect class="token" x="986" y="198" width="22" height="14" fill="#34d399" opacity="0.34"/>
  <rect class="token" x="1013" y="198" width="22" height="14" fill="#34d399" opacity="0.16"/>
  <rect class="token" x="1040" y="198" width="22" height="14" fill="#34d399" opacity="0.10"/>
  <rect class="token" x="1067" y="198" width="22" height="14" fill="#34d399" opacity="0.03"/>

  <rect class="token" x="986" y="243" width="22" height="14" fill="#a78bfa" opacity="0.40"/>
  <rect class="token" x="1013" y="243" width="22" height="14" fill="#a78bfa" opacity="0.18"/>
  <rect class="token" x="1040" y="243" width="22" height="14" fill="#a78bfa" opacity="0.26"/>
  <rect class="token" x="1067" y="243" width="22" height="14" fill="#a78bfa" opacity="0.05"/>

  <rect class="token" x="986" y="288" width="22" height="14" fill="#f59e0b" opacity="0.28"/>
  <rect class="token" x="1013" y="288" width="22" height="14" fill="#f59e0b" opacity="0.14"/>
  <rect class="token" x="1040" y="288" width="22" height="14" fill="#f59e0b" opacity="0.19"/>
  <rect class="token" x="1067" y="288" width="22" height="14" fill="#f59e0b" opacity="0.04"/>

  <rect class="token" x="986" y="333" width="22" height="14" fill="#94a3b8" opacity="0.26"/>
  <rect class="token" x="1013" y="333" width="22" height="14" fill="#94a3b8" opacity="0.12"/>
  <rect class="token" x="1040" y="333" width="22" height="14" fill="#94a3b8" opacity="0.18"/>
  <rect class="token" x="1067" y="333" width="22" height="14" fill="#94a3b8" opacity="0.03"/>

  <rect class="token" x="986" y="378" width="22" height="14" fill="#fb7185" opacity="0.26"/>
  <rect class="token" x="1013" y="378" width="22" height="14" fill="#fb7185" opacity="0.14"/>
  <rect class="token" x="1040" y="378" width="22" height="14" fill="#fb7185" opacity="0.07"/>
  <rect class="token" x="1067" y="378" width="22" height="14" fill="#fb7185" opacity="0.00"/>
  </g>

</svg>
