<svg width="118" height="32" viewBox="0 0 118 32" fill="none" xmlns="http://www.w3.org/2000/svg">
<g clip-path="url(#clip0_3367_32101)">
<path d="M4.21578 0H26.9161C29.2413 0 31.1319 1.88292 31.1319 4.19863V27.7756C31.1319 30.0913 29.2413 31.9742 26.9161 31.9742H4.21578C1.89062 31.9742 0 30.0913 0 27.7756V4.19863C0 1.88292 1.89062 0 4.21578 0Z" fill="url(#paint0_linear_3367_32101)"/>
<path d="M20.5552 8.78516H9.28608C9.1855 8.78516 9.0915 8.79488 8.99745 8.81747H8.33264C7.98747 8.81832 7.65667 8.95547 7.41294 9.19889C7.16916 9.44226 7.03223 9.77201 7.03223 10.1158V21.8074C7.03223 22.5244 7.61595 23.1057 8.33264 23.1057H10.0676C10.7843 23.1057 11.368 22.5244 11.368 21.8074V14.4113C11.368 14.2981 11.3904 14.1859 11.4339 14.0813C11.4774 13.9767 11.5412 13.8816 11.6216 13.8016C11.702 13.7215 11.7975 13.658 11.9025 13.6146C12.0076 13.5713 12.1201 13.549 12.2339 13.549C12.3475 13.549 12.4602 13.5713 12.5652 13.6146C12.6703 13.658 12.7657 13.7215 12.8461 13.8016C12.9265 13.8816 12.9903 13.9767 13.0338 14.0813C13.0773 14.1859 13.0997 14.2981 13.0997 14.4113V21.8074C13.0997 22.5244 13.6835 23.1057 14.4001 23.1057H16.1351C16.8517 23.1057 17.4355 22.5244 17.4355 21.8074V14.4113C17.4355 14.1826 17.5267 13.9633 17.6891 13.8016C17.8515 13.6399 18.0717 13.549 18.3013 13.549C18.531 13.549 18.7512 13.6399 18.9136 13.8016C19.076 13.9633 19.1672 14.1826 19.1672 14.4113V21.8074C19.1672 22.5244 19.7509 23.1057 20.4676 23.1057H22.2026C22.9192 23.1057 23.503 22.5244 23.503 21.8074V10.1158C23.503 9.39882 22.9192 8.81747 22.2026 8.81747H20.8438C20.753 8.79807 20.6557 8.78516 20.5552 8.78516Z" fill="white"/>
<path d="M37.8628 24.137V13.3665H40.9366V14.8936C41.6444 13.9894 42.5746 13.1655 44.1317 13.1655C45.5472 13.1655 46.6193 13.7884 47.1855 14.8735C48.136 13.7684 49.2684 13.1655 50.7446 13.1655C53.0297 13.1655 54.4049 14.5319 54.4049 17.1241V24.137H51.3311V18.1288C51.3311 16.682 50.684 15.9385 49.5313 15.9385C48.3786 15.9385 47.6708 16.682 47.6708 18.1288V24.137H44.5968V18.1288C44.5968 16.682 43.9497 15.9385 42.797 15.9385C41.6444 15.9385 40.9366 16.682 40.9366 18.1288V24.137H37.8628Z" fill="black"/>
<path d="M62.1015 24.3198C58.8385 24.3198 56.4268 22.061 56.4268 18.7827V18.7427C56.4268 15.6842 58.6359 13.1655 61.7975 13.1655C65.4253 13.1655 67.0872 15.9441 67.0872 18.9825C67.0872 19.2224 67.0669 19.5023 67.0467 19.7821H59.4871C59.7911 21.1614 60.7639 21.8811 62.142 21.8811C63.1757 21.8811 63.9255 21.5612 64.7768 20.7816L66.54 22.3208C65.5266 23.5602 64.0674 24.3198 62.1015 24.3198ZM59.4465 17.8831H64.0877C63.9053 16.5238 63.0946 15.6043 61.7975 15.6043C60.5207 15.6043 59.6897 16.5038 59.4465 17.8831Z" fill="black"/>
<path d="M69.4766 24.1374V9.50879H72.6012V24.1374H69.4766Z" fill="black"/>
<path d="M80.8521 24.3198C77.4853 24.3198 74.9907 21.8611 74.9907 18.7827V18.7427C74.9907 15.6642 77.5056 13.1655 80.8926 13.1655C84.2593 13.1655 86.754 15.6243 86.754 18.7027V18.7427C86.754 21.8211 84.2391 24.3198 80.8521 24.3198ZM80.8926 21.7012C82.6571 21.7012 83.7117 20.3618 83.7117 18.7827V18.7427C83.7117 17.1635 82.5557 15.7842 80.8521 15.7842C79.0876 15.7842 78.0329 17.1235 78.0329 18.7027V18.7427C78.0329 20.3219 79.189 21.7012 80.8926 21.7012Z" fill="black"/>
<path d="M93.4509 24.3202C90.9616 24.3202 88.5918 22.3587 88.5918 18.7759V18.7359C88.5918 15.1531 90.9218 13.1916 93.4509 13.1916C95.064 13.1916 96.0597 13.9322 96.7766 14.7929V9.50879H99.8036V24.1201H96.7766V22.5789C96.0398 23.5796 95.0242 24.3202 93.4509 24.3202ZM94.2276 21.7382C95.6415 21.7382 96.8165 20.5573 96.8165 18.7759V18.7359C96.8165 16.9545 95.6415 15.7736 94.2276 15.7736C92.8137 15.7736 91.6188 16.9345 91.6188 18.7359V18.7759C91.6188 20.5573 92.8137 21.7382 94.2276 21.7382Z" fill="black"/>
<path d="M102.745 12.2141V9.50879H105.869V12.2141H102.745ZM102.823 24.1374V13.3964H105.791V24.1374H102.823Z" fill="black"/>
<path d="M111.779 24.3198C109.746 24.3198 108.075 23.1478 108.075 21.0059V20.9654C108.075 18.6012 109.866 17.51 112.423 17.51C113.51 17.51 114.296 17.6919 115.061 17.9546V17.7727C115.061 16.4997 114.275 15.7924 112.745 15.7924C111.578 15.7924 110.752 16.0147 109.766 16.3784L109.001 14.0344C110.189 13.509 111.356 13.1655 113.188 13.1655C114.859 13.1655 116.067 13.6101 116.832 14.378C117.638 15.1862 118 16.3784 118 17.8334V24.1177H115.04V22.9457C114.296 23.7742 113.269 24.3198 111.779 24.3198ZM112.705 22.1981C114.135 22.1981 115.101 21.41 115.101 20.2986V19.753C114.577 19.5105 113.893 19.3489 113.148 19.3489C111.839 19.3489 111.034 19.8743 111.034 20.8442V20.8846C111.034 21.7131 111.719 22.1981 112.705 22.1981Z" fill="black"/>
</g>
<defs>
<linearGradient id="paint0_linear_3367_32101" x1="98.2341" y1="-19.6149" x2="98.2341" y2="51.7912" gradientUnits="userSpaceOnUse">
<stop stop-color="#6973F2"/>
<stop offset="1" stop-color="#4653EF"/>
</linearGradient>
<clipPath id="clip0_3367_32101">
<rect width="118" height="32" fill="white"/>
</clipPath>
</defs>
</svg>
